<mxfile host="app.diagrams.net" agent="Mozilla/5.0 (Windows NT 10.0; Win64; x64) AppleWebKit/537.36 (KHTML, like Gecko) Chrome/140.0.0.0 Safari/537.36" version="28.2.1">
  <diagram id="0pjJFw1XDNLn3v5XXtl9" name="ページ1">
    <mxGraphModel dx="786" dy="451" grid="1" gridSize="10" guides="1" tooltips="1" connect="1" arrows="1" fold="1" page="1" pageScale="1" pageWidth="827" pageHeight="1169" math="0" shadow="0">
      <root>
        <mxCell id="0" />
        <mxCell id="1" parent="0" />
        <mxCell id="2WB2Q0FiawlhU4YyRK-G-2" value="ユーザー" style="shape=umlActor;verticalLabelPosition=bottom;verticalAlign=top;html=1;" vertex="1" parent="1">
          <mxGeometry x="100" y="180" width="30" height="60" as="geometry" />
        </mxCell>
        <mxCell id="2WB2Q0FiawlhU4YyRK-G-3" value="メニュー画面" style="shape=umlBoundary;whiteSpace=wrap;html=1;" vertex="1" parent="1">
          <mxGeometry x="200" y="100" width="100" height="80" as="geometry" />
        </mxCell>
        <mxCell id="2WB2Q0FiawlhU4YyRK-G-4" value="" style="endArrow=classic;html=1;rounded=0;entryX=-0.04;entryY=0.525;entryDx=0;entryDy=0;entryPerimeter=0;" edge="1" parent="1" source="2WB2Q0FiawlhU4YyRK-G-2" target="2WB2Q0FiawlhU4YyRK-G-3">
          <mxGeometry width="50" height="50" relative="1" as="geometry">
            <mxPoint x="160" y="250" as="sourcePoint" />
            <mxPoint x="170" y="170" as="targetPoint" />
          </mxGeometry>
        </mxCell>
        <mxCell id="2WB2Q0FiawlhU4YyRK-G-10" value="「名前の変更」&lt;div&gt;を選択&lt;/div&gt;" style="edgeLabel;html=1;align=center;verticalAlign=middle;resizable=0;points=[];" vertex="1" connectable="0" parent="2WB2Q0FiawlhU4YyRK-G-4">
          <mxGeometry x="0.029" y="-3" relative="1" as="geometry">
            <mxPoint x="-36" y="-21" as="offset" />
          </mxGeometry>
        </mxCell>
        <mxCell id="2WB2Q0FiawlhU4YyRK-G-5" value="名前の変更&lt;div&gt;画面表示&lt;/div&gt;" style="ellipse;shape=umlControl;whiteSpace=wrap;html=1;" vertex="1" parent="1">
          <mxGeometry x="370" y="170" width="70" height="80" as="geometry" />
        </mxCell>
        <mxCell id="2WB2Q0FiawlhU4YyRK-G-6" value="名前変更&lt;div&gt;画面&lt;/div&gt;" style="shape=umlBoundary;whiteSpace=wrap;html=1;" vertex="1" parent="1">
          <mxGeometry x="200" y="240" width="100" height="80" as="geometry" />
        </mxCell>
        <mxCell id="2WB2Q0FiawlhU4YyRK-G-7" value="" style="endArrow=classic;html=1;rounded=0;" edge="1" parent="1" source="2WB2Q0FiawlhU4YyRK-G-3" target="2WB2Q0FiawlhU4YyRK-G-5">
          <mxGeometry width="50" height="50" relative="1" as="geometry">
            <mxPoint x="320" y="179" as="sourcePoint" />
            <mxPoint x="386" y="140" as="targetPoint" />
          </mxGeometry>
        </mxCell>
        <mxCell id="2WB2Q0FiawlhU4YyRK-G-8" value="" style="endArrow=classic;html=1;rounded=0;" edge="1" parent="1" source="2WB2Q0FiawlhU4YyRK-G-5" target="2WB2Q0FiawlhU4YyRK-G-6">
          <mxGeometry width="50" height="50" relative="1" as="geometry">
            <mxPoint x="360" y="350" as="sourcePoint" />
            <mxPoint x="436" y="260" as="targetPoint" />
          </mxGeometry>
        </mxCell>
        <mxCell id="2WB2Q0FiawlhU4YyRK-G-9" value="" style="endArrow=classic;html=1;rounded=0;entryX=-0.04;entryY=0.475;entryDx=0;entryDy=0;entryPerimeter=0;" edge="1" parent="1" source="2WB2Q0FiawlhU4YyRK-G-2" target="2WB2Q0FiawlhU4YyRK-G-6">
          <mxGeometry width="50" height="50" relative="1" as="geometry">
            <mxPoint x="130" y="349" as="sourcePoint" />
            <mxPoint x="170" y="260" as="targetPoint" />
          </mxGeometry>
        </mxCell>
        <mxCell id="2WB2Q0FiawlhU4YyRK-G-15" value="変更後の&lt;div&gt;名前を入力&lt;/div&gt;" style="edgeLabel;html=1;align=center;verticalAlign=middle;resizable=0;points=[];" vertex="1" connectable="0" parent="2WB2Q0FiawlhU4YyRK-G-9">
          <mxGeometry x="-0.0087" y="4" relative="1" as="geometry">
            <mxPoint x="-16" y="33" as="offset" />
          </mxGeometry>
        </mxCell>
        <mxCell id="2WB2Q0FiawlhU4YyRK-G-11" value="RoboDog" style="ellipse;shape=umlEntity;whiteSpace=wrap;html=1;" vertex="1" parent="1">
          <mxGeometry x="550" y="170" width="80" height="80" as="geometry" />
        </mxCell>
        <mxCell id="2WB2Q0FiawlhU4YyRK-G-12" value="" style="endArrow=classic;startArrow=classic;html=1;rounded=0;" edge="1" parent="1" source="2WB2Q0FiawlhU4YyRK-G-11" target="2WB2Q0FiawlhU4YyRK-G-5">
          <mxGeometry width="50" height="50" relative="1" as="geometry">
            <mxPoint x="320" y="260" as="sourcePoint" />
            <mxPoint x="450" y="310" as="targetPoint" />
          </mxGeometry>
        </mxCell>
        <mxCell id="2WB2Q0FiawlhU4YyRK-G-13" value="現在の名前を&lt;div&gt;取得、返還&lt;/div&gt;" style="edgeLabel;html=1;align=center;verticalAlign=middle;resizable=0;points=[];" vertex="1" connectable="0" parent="2WB2Q0FiawlhU4YyRK-G-12">
          <mxGeometry x="0.1818" y="-4" relative="1" as="geometry">
            <mxPoint x="5" y="-16" as="offset" />
          </mxGeometry>
        </mxCell>
        <mxCell id="2WB2Q0FiawlhU4YyRK-G-16" value="名前の変更" style="ellipse;shape=umlControl;whiteSpace=wrap;html=1;" vertex="1" parent="1">
          <mxGeometry x="370" y="300" width="70" height="80" as="geometry" />
        </mxCell>
        <mxCell id="2WB2Q0FiawlhU4YyRK-G-17" value="" style="endArrow=classic;html=1;rounded=0;" edge="1" parent="1" source="2WB2Q0FiawlhU4YyRK-G-6" target="2WB2Q0FiawlhU4YyRK-G-16">
          <mxGeometry width="50" height="50" relative="1" as="geometry">
            <mxPoint x="312" y="410" as="sourcePoint" />
            <mxPoint x="240" y="442" as="targetPoint" />
          </mxGeometry>
        </mxCell>
        <mxCell id="2WB2Q0FiawlhU4YyRK-G-18" value="" style="endArrow=classic;startArrow=classic;html=1;rounded=0;" edge="1" parent="1" source="2WB2Q0FiawlhU4YyRK-G-16" target="2WB2Q0FiawlhU4YyRK-G-11">
          <mxGeometry width="50" height="50" relative="1" as="geometry">
            <mxPoint x="320" y="260" as="sourcePoint" />
            <mxPoint x="370" y="210" as="targetPoint" />
          </mxGeometry>
        </mxCell>
        <mxCell id="2WB2Q0FiawlhU4YyRK-G-19" value="名前の変更" style="edgeLabel;html=1;align=center;verticalAlign=middle;resizable=0;points=[];" vertex="1" connectable="0" parent="2WB2Q0FiawlhU4YyRK-G-18">
          <mxGeometry x="0.4043" y="-2" relative="1" as="geometry">
            <mxPoint y="30" as="offset" />
          </mxGeometry>
        </mxCell>
        <mxCell id="2WB2Q0FiawlhU4YyRK-G-20" value="変更&lt;span style=&quot;background-color: transparent; color: light-dark(rgb(0, 0, 0), rgb(255, 255, 255));&quot;&gt;結果&lt;/span&gt;&lt;div&gt;&lt;span style=&quot;background-color: transparent; color: light-dark(rgb(0, 0, 0), rgb(255, 255, 255));&quot;&gt;画面&lt;/span&gt;&lt;span style=&quot;background-color: transparent; color: light-dark(rgb(0, 0, 0), rgb(255, 255, 255));&quot;&gt;表示&lt;/span&gt;&lt;/div&gt;" style="ellipse;shape=umlControl;whiteSpace=wrap;html=1;" vertex="1" parent="1">
          <mxGeometry x="555" y="350" width="70" height="80" as="geometry" />
        </mxCell>
        <mxCell id="2WB2Q0FiawlhU4YyRK-G-21" value="" style="endArrow=classic;html=1;rounded=0;" edge="1" parent="1" source="2WB2Q0FiawlhU4YyRK-G-16" target="2WB2Q0FiawlhU4YyRK-G-20">
          <mxGeometry width="50" height="50" relative="1" as="geometry">
            <mxPoint x="470" y="380" as="sourcePoint" />
            <mxPoint x="542" y="408" as="targetPoint" />
          </mxGeometry>
        </mxCell>
        <mxCell id="2WB2Q0FiawlhU4YyRK-G-22" value="" style="endArrow=classic;startArrow=classic;html=1;rounded=0;" edge="1" parent="1" source="2WB2Q0FiawlhU4YyRK-G-20" target="2WB2Q0FiawlhU4YyRK-G-11">
          <mxGeometry width="50" height="50" relative="1" as="geometry">
            <mxPoint x="320" y="340" as="sourcePoint" />
            <mxPoint x="370" y="290" as="targetPoint" />
          </mxGeometry>
        </mxCell>
        <mxCell id="2WB2Q0FiawlhU4YyRK-G-23" value="変更後の名前を&lt;div&gt;取得、返還&lt;/div&gt;" style="edgeLabel;html=1;align=center;verticalAlign=middle;resizable=0;points=[];" vertex="1" connectable="0" parent="2WB2Q0FiawlhU4YyRK-G-22">
          <mxGeometry x="0.1533" y="-2" relative="1" as="geometry">
            <mxPoint as="offset" />
          </mxGeometry>
        </mxCell>
        <mxCell id="2WB2Q0FiawlhU4YyRK-G-24" value="変更結果画面" style="shape=umlBoundary;whiteSpace=wrap;html=1;" vertex="1" parent="1">
          <mxGeometry x="355" y="410" width="100" height="80" as="geometry" />
        </mxCell>
        <mxCell id="2WB2Q0FiawlhU4YyRK-G-25" value="" style="endArrow=classic;html=1;rounded=0;" edge="1" parent="1" source="2WB2Q0FiawlhU4YyRK-G-20" target="2WB2Q0FiawlhU4YyRK-G-24">
          <mxGeometry width="50" height="50" relative="1" as="geometry">
            <mxPoint x="520" y="400" as="sourcePoint" />
            <mxPoint x="637" y="432" as="targetPoint" />
          </mxGeometry>
        </mxCell>
      </root>
    </mxGraphModel>
  </diagram>
</mxfile>
